<?xml version="1.0" encoding="iso-8859-1"?>
<!-- Generator: Adobe Illustrator 19.0.0, SVG Export Plug-In . SVG Version: 6.00 Build 0)  -->
<svg version="1.1" id="Layer_1" xmlns="http://www.w3.org/2000/svg" xmlns:xlink="http://www.w3.org/1999/xlink" x="0px" y="0px"
	 viewBox="0 0 491.52 491.52" style="enable-background:new 0 0 491.52 491.52;" xml:space="preserve">
<g>
	<g>
		<path d="M0,0v491.52h491.52V0H0z M471.04,471.04H20.48v-204.8h450.56V471.04z M471.04,245.76H20.48V102.4h450.56V245.76z
			 M471.04,81.92H20.48V20.48h450.56V81.92z"/>
	</g>
</g>
<g>
	<g>
		<rect x="430.08" y="40.96" width="20.48" height="20.48"/>
	</g>
</g>
<g>
	<g>
		<rect x="389.12" y="40.96" width="20.48" height="20.48"/>
	</g>
</g>
<g>
	<g>
		<rect x="348.16" y="40.96" width="20.48" height="20.48"/>
	</g>
</g>
<g>
	<g>
		<rect x="51.2" y="40.96" width="245.76" height="20.48"/>
	</g>
</g>
<g>
	<g>
		<polygon points="396.36,125.88 381.88,140.36 415.6,174.08 381.88,207.8 396.36,222.28 444.56,174.08 		"/>
	</g>
</g>
<g>
	<g>
		<polygon points="109.64,140.36 95.16,125.88 46.96,174.08 95.16,222.28 109.64,207.8 75.92,174.08 		"/>
	</g>
</g>
<g>
	<g>
		<path d="M40.96,286.72v163.84h122.88V286.72H40.96z M143.36,430.08H61.44V307.2h81.92V430.08z"/>
	</g>
</g>
<g>
	<g>
		<path d="M184.32,286.72v163.84H307.2V286.72H184.32z M286.72,430.08H204.8V307.2h81.92V430.08z"/>
	</g>
</g>
<g>
	<g>
		<path d="M327.68,286.72v163.84h122.88V286.72H327.68z M348.16,430.08V307.2h81.92v122.88H348.16z"/>
	</g>
</g>
<g>
</g>
<g>
</g>
<g>
</g>
<g>
</g>
<g>
</g>
<g>
</g>
<g>
</g>
<g>
</g>
<g>
</g>
<g>
</g>
<g>
</g>
<g>
</g>
<g>
</g>
<g>
</g>
<g>
</g>
</svg>
