<svg width="200.00000000000003" height="154" xmlns="http://www.w3.org/2000/svg">

 <g>
  <title>background</title>
  <rect fill="none" id="canvas_background" height="156" width="202" y="-1" x="-1"/>
 </g>
 <g>
  <title>Layer 1</title>
  <g stroke="null" id="svg_1">
   <path fill="#ffffff" stroke="null" id="svg_2" d="m100.81749,53.18533c-0.6909,-1.21145 -1.32029,-2.70209 -1.72016,-4.38676c-0.65068,-2.85826 -0.40697,-5.43258 0.64831,-7.08649c3.82836,-5.96495 15.24246,-5.64316 24.40639,-5.38526c4.04131,0.11594 7.86257,0.21768 10.77998,-0.21058c18.74429,-2.7991 17.82624,-12.56166 16.85377,-22.90864c-0.35018,-3.80706 -0.77135,-8.12521 -0.39987,-12.77697l-5.49883,-0.43063c-0.39987,5.12499 0.02366,9.69394 0.39514,13.72105c0.9985,10.53627 1.4031,14.897 -12.15469,16.92239c-2.43472,0.35255 -6.0312,0.26264 -9.80988,0.14906c-10.54574,-0.29813 -23.69655,-0.66724 -29.20958,7.92646c-1.90235,2.93634 -2.3874,6.95399 -1.396,11.31472c0.25554,1.08604 0.59389,2.14133 1.00086,3.14929l-95.11274,0l0,78.75585l200.7996,0l0,-78.75821l-99.58231,0.00473l0,0zm53.06466,8.29084l10.14113,0l0,11.9725l-10.14113,0l0,-11.9725zm0,17.03833l10.14113,0l0,11.97723l-10.14113,0l0,-11.97723zm0,17.0407l10.14113,0l0,11.9725l-10.14113,0l0,-11.9725zm-14.74321,-34.07903l10.14113,0l0,11.9725l-10.14113,0l0,-11.9725zm0,17.03833l10.14113,0l0,11.97723l-10.14113,0l0,-11.97723zm0,17.0407l10.14113,0l0,11.9725l-10.14113,0l0,-11.9725zm-14.73848,-34.07903l10.14113,0l0,11.9725l-10.14113,0l0,-11.9725zm0,17.03833l10.14113,0l0,11.97723l-10.14113,0l0,-11.97723zm0,17.0407l10.14113,0l0,11.9725l-10.14113,0l0,-11.9725zm-14.74084,-34.07903l10.14113,0l0,11.9725l-10.14113,0l0,-11.9725zm0,17.03833l10.14113,0l0,11.97723l-10.14113,0l0,-11.97723zm0,17.0407l10.14113,0l0,11.9725l-10.14113,0l0,-11.9725zm-14.73848,-5.06347l0,-11.97723l10.14113,0l0,11.97723l-10.14113,0zm10.14113,5.06347l0,11.9725l-10.14113,0l0,-11.9725l10.14113,0zm-10.14113,-22.10653l0,-11.9725l10.14113,0l0,11.9725l-10.14113,0zm-14.74084,-11.9725l10.14113,0l0,11.9725l-10.14113,0l0,-11.9725zm0,17.03833l10.14113,0l0,11.97723l-10.14113,0l0,-11.97723zm0,17.0407l10.14113,0l0,11.9725l-10.14113,0l0,-11.9725zm-14.73848,-34.07903l10.14113,0l0,11.9725l-10.14113,0l0,-11.9725zm0,17.03833l10.14113,0l0,11.97723l-10.14113,0l0,-11.97723zm0,17.0407l10.14113,0l0,11.9725l-10.14113,0l0,-11.9725zm-14.74084,-34.07903l10.14113,0l0,11.9725l-10.14113,0l0,-11.9725zm0,17.03833l10.14113,0l0,11.97723l-10.14113,0l0,-11.97723zm0,17.0407l10.14113,0l0,11.9725l-10.14113,0l0,-11.9725zm-14.74084,-34.07903l10.14113,0l0,11.9725l-10.14113,0l0,-11.9725zm0,17.03833l10.14113,0l0,11.97723l-10.14113,0l0,-11.97723zm-19.33819,44.21543l-10.14113,0l0,-11.97723l10.14113,0l0,11.97723zm0,-15.19987l-10.14113,0l0,-11.97013l10.14113,0l0,11.97013zm0,-17.03833l-10.14113,0l0,-11.97723l10.14113,0l0,11.97723zm0,-17.04306l-10.14113,0l0,-11.9725l10.14113,0l0,11.9725zm14.74084,49.28126l-10.14113,0l0,-11.97723l10.14113,0l0,11.97723zm0,-15.19987l-10.14113,0l0,-11.97013l10.14113,0l0,11.97013zm0,-17.03833l-10.14113,0l0,-11.97723l10.14113,0l0,11.97723zm0,-17.04306l-10.14113,0l0,-11.9725l10.14113,0l0,11.9725zm4.59734,22.10653l10.14113,0l0,11.9725l-10.14113,0l0,-11.9725zm128.53162,27.17473l-128.51979,0l0,-11.97723l128.51979,0l0,11.97723zm14.26999,0l-10.14113,0l0,-11.97723l10.14113,0l0,11.97723zm0,-15.19987l-10.14113,0l0,-11.97013l10.14113,0l0,11.97013zm0,-17.03833l-10.14113,0l0,-11.97723l10.14113,0l0,11.97723zm0,-17.04306l-10.14113,0l0,-11.9725l10.14113,0l0,11.9725zm14.74084,49.28126l-10.14113,0l0,-11.97723l10.14113,0l0,11.97723zm0,-15.19987l-10.14113,0l0,-11.97013l10.14113,0l0,11.97013zm0,-17.03833l-10.14113,0l0,-11.97723l10.14113,0l0,11.97723zm0,-17.04306l-10.14113,0l0,-11.9725l10.14113,0l0,11.9725z"/>
  </g>
  <g id="svg_3"/>
  <g id="svg_4"/>
  <g id="svg_5"/>
  <g id="svg_6"/>
  <g id="svg_7"/>
  <g id="svg_8"/>
  <g id="svg_9"/>
  <g id="svg_10"/>
  <g id="svg_11"/>
  <g id="svg_12"/>
  <g id="svg_13"/>
  <g id="svg_14"/>
  <g id="svg_15"/>
  <g id="svg_16"/>
  <g id="svg_17"/>
  <text stroke="#000" transform="matrix(1.0037433217647929,0,0,1.0037433217647929,-0.2882634959418495,-0.3640267738871048) " xml:space="preserve" text-anchor="start" font-family="'Trebuchet MS', Gadget, sans-serif" font-size="24" id="svg_18" y="152.69356" x="1.21533" stroke-width="0" fill="#ffffff">OLIVER ODENDAAL</text>
 </g>
</svg>